# xmcd
#
# Track frame offsets:
#	150
#	15403
#	28550
#	41912
#	60404
#	74365
#	88469
#	105141
#	120474
#	133826
#	149063
#	163593
#	178872
#	194031
#	209381
#	222808
#
# Disc length: 3146 seconds
#
# Revision: 1
# Processed by: cddbd v1.5.2PL0 Copyright (c) Steve Scherf et al.
# Submitted via: audiograbber 1.83.01
#
DISCID=f00c4810
DTITLE=Sulino e Marrueiro - Em Modas de Viola - Vol. 1
DYEAR=1900
DGENRE=Polka
TTITLE0=Menino Boiadeiro
TTITLE1=Boi Fumaça
TTITLE2=Resposta do mineiro e o italiano
TTITLE3=Herói do Laço
TTITLE4=Marca da inocência
TTITLE5=Peão da cidade
TTITLE6=Madre terezinha
TTITLE7=Velho peão
TTITLE8=Laço justiceiro
TTITLE9=A marca do berrante
TTITLE10=Promessa do batistinha
TTITLE11=Empreitada perigosa
TTITLE12=Nóra Perversa
TTITLE13=João Boiadeiro
TTITLE14=Homenagem ao ferreirinha
TTITLE15=Estações da vida
EXTD=
EXTT0=
EXTT1=
EXTT2=
EXTT3=
EXTT4=
EXTT5=
EXTT6=
EXTT7=
EXTT8=
EXTT9=
EXTT10=
EXTT11=
EXTT12=
EXTT13=
EXTT14=
EXTT15=
PLAYORDER=
